# xmcd
#
# Track frame offsets:
#       150
#       15672
#       30967
#       44627
#       57880
#       66572
#       76092
#       88107
#       103880
#       113817
#       127305
#       141580
#       161515
#
# Disc length: 2345 seconds
#
# Revision: 0
# Processed by: cddbd v1.4PL0 Copyright (c) Steve Scherf et al.
# Submitted via: CD-DA_X-Tractor v0.24
#
DISCID=b809270d
DTITLE=Aparicio Gonzalez - Secretos del Arpa Paraguaya
DYEAR=1900
DGENRE=
TTITLE0=Pajaro campana
TTITLE1=Mi dicha lejana
TTITLE2=Recuerdo de Ypacarai
TTITLE3=Seleccion de Polcas (Fiesta campesina, Tu sonrisa, Pequeña cancion)
TTITLE4=Noches de Paraguay
TTITLE5=Danza Campesina
TTITLE6=Alma y violin
TTITLE7=Mis noches sin ti
TTITLE8=Josefa a donde vas
TTITLE9=Maria Veronica
TTITLE10=Cascada
TTITLE11=Vengo junto a ti
TTITLE12=Seleccion de polcas (Melodia para ti, Boyerito, La urraca)
EXTD=
EXTT0=
EXTT1=
EXTT2=
EXTT3=
EXTT4=
EXTT5=
EXTT6=
EXTT7=
EXTT8=
EXTT9=
EXTT10=
EXTT11=
EXTT12=
PLAYORDER=
